<svg xmlns="http://www.w3.org/2000/svg" viewBox="0 0 48 48"><path fill="#4caf50" d="M23,31L23,31H13c0,0-11,1.986-11,13h32C34,33.025,23,31,23,31"/><path fill="#ff9800" d="M18,37l-5-6v-6h10v6L18,37z"/><path fill="#ffa726" d="M29,19c0,1.105-0.896,2-2,2c-1.105,0-2-0.895-2-2s0.895-2,2-2C28.104,17,29,17.895,29,19 M11,19 c0-1.105-0.896-2-2-2c-1.106,0-2,0.895-2,2s0.894,2,2,2C10.104,21,11,20.105,11,19"/><path fill="#ffb74d" d="M27,13c0-7.635-18-4.971-18,0v7c0,4.971,4.028,9,9,9c4.971,0,9-4.029,9-9V13z"/><path fill="#424242" d="M18,4C11.925,4,8,8.926,8,15v2.286L10,19v-5l12-4l4,4v5l2-1.742V15c0-4.025-1.038-8.016-6-9l-1-2H18 z"/><path fill="#784719" d="M21,19c0-0.551,0.448-1,1-1s1,0.449,1,1s-0.448,1-1,1S21,19.551,21,19 M13,19c0,0.551,0.448,1,1,1 s1-0.449,1-1s-0.448-1-1-1S13,18.449,13,19"/><path fill="#2e7d32" d="M23,31l-5,6l-5-6c0,0-0.88,0.161-2.141,0.637l0.603,0.645l5,6L17,38.925V44h2v-5.075l0.536-0.643 l5-6l0.539-0.664C23.85,31.156,23,31,23,31z"/><rect width="19" height="9" x="28" y="35" fill="#212121"/><polygon fill="#eceff1" points="34.063,38 36.063,38 37.063,35 35.063,35"/><polygon fill="#eceff1" points="38.063,38 40.063,38 41.063,35 39.063,35"/><polygon fill="#eceff1" points="42.063,38 44.063,38 45.063,35 43.063,35"/><rect width="19" height="3" x="27.613" y="30.44" fill="#212121" transform="rotate(-9.667 37.117 31.944)"/><polygon fill="#eceff1" points="30.063,38 32.063,38 33.063,35 31.063,35"/><polygon fill="#eceff1" points="40.755,32.842 38.783,33.178 37.294,30.388 39.265,30.052"/><polygon fill="#eceff1" points="32.868,34.185 30.897,34.52 29.407,31.731 31.379,31.395"/><polygon fill="#eceff1" points="44.698,32.171 42.726,32.506 41.237,29.717 43.209,29.381"/><polygon fill="#eceff1" points="36.811,33.513 34.84,33.849 33.351,31.059 35.322,30.724"/></svg>