<svg xmlns="http://www.w3.org/2000/svg" viewBox="0 0 48 48"><path fill="#4fc3f7" d="M27,31L27,31c0,0-1,4-5,4s-5-4-5-4S6,32.986,6,44h32C38,33.025,27,31,27,31"/><path fill="#ff9800" d="M22,37c-5,0-5-6-5-6v-6h10v6C27,31,27,37,22,37z"/><path fill="#ffa726" d="M33 19c0 1.105-.896 2-2 2-1.106 0-2-.895-2-2s.894-2 2-2C32.104 17 33 17.895 33 19M15 19c0 1.105-.896 2-2 2-1.106 0-2-.895-2-2s.894-2 2-2C14.104 17 15 17.895 15 19"/><path fill="#ffb74d" d="M31,13c0-7.635-18-4.971-18,0v7c0,4.971,4.028,9,9,9c4.971,0,9-4.029,9-9V13z"/><path fill="#424242" d="M22,4c-6.075,0-10,4.926-10,11v2.286L14,19v-5l12-4l4,4v5l2-1.742V15c0-4.025-1.038-8.016-6-9l-1-2H22z"/><path fill="#784719" d="M25 19c0 .551.448 1 1 1s1-.449 1-1-.448-1-1-1S25 18.449 25 19M17 19c0 .551.448 1 1 1s1-.449 1-1-.448-1-1-1S17 18.449 17 19"/><path fill="#01579b" d="M22,37c5,0,6.745-3.93,6.95-5.428C27.794,31.148,27,31,27,31s-1,4-5,4s-5-4-5-4s-0.795,0.145-1.952,0.566C15.252,33.061,17,37,22,37z"/><g><path fill="#1976d2" d="M40 12H43V23H40zM43 8c0-1.105-.895-2-2-2s-2 .895-2 2c0 1.105.895 2 2 2S43 9.105 43 8"/><path fill="#1976d2" d="M38 12H41V15H38z"/></g></svg>