<svg xmlns="http://www.w3.org/2000/svg" viewBox="0 0 128 128"><path fill="#fff" d="M73.2,74c0,11,9,20,20,20s20-9,20-20c0-3.7-1-7.1-2.8-10.1H75.9C74.2,66.9,73.2,70.3,73.2,74z"/><path fill="#ad5165" d="M101.2,74c0,7.8-3.2,14.9-8.4,20c0.1,0,0.3,0,0.4,0c11,0,20-9,20-20H101.2z"/><path fill="#444b54" d="M93.2,97c-1.7,0-3-1.3-3-3s1.3-3,3-3c9.4,0,17-7.6,17-17c0-2.5-0.5-4.9-1.6-7.1h-8.2c-1.7,0-3-1.3-3-3s1.3-3,3-3h10c1.1,0,2,0.6,2.6,1.5c2.1,3.5,3.2,7.6,3.2,11.6C116.2,86.7,105.8,97,93.2,97z"/><path fill="#444b54" d="M103.2,117c-7.2,0-13-5.8-13-13V94c0-1.7,1.3-3,3-3s3,1.3,3,3v10c0,3.9,3.1,7,7,7c1.7,0,3,1.3,3,3S104.8,117,103.2,117z"/><path fill="#444b54" d="M103.2,117h-10c-1.7,0-3-1.3-3-3s1.3-3,3-3h10c1.7,0,3,1.3,3,3S104.8,117,103.2,117z"/><path fill="#8fe5b5" d="M33.2,14h-11v27.9c0,4.5-1.8,8.9-5,12.1l0,0c-3.2,3.2-5,7.5-5,12.1V114h31V66.1c0-4.5-1.8-8.9-5-12.1l0,0c-3.2-3.2-5-7.5-5-12.1V14z"/><path fill="#fcf09d" d="M22.2 14H33.2V24H22.2z"/><path fill="#ff697b" d="M17.2,54L17.2,54c-3.2,3.2-5,7.5-5,12.1V114h31V66.1c0-4.5-1.8-8.9-5-12.1l0,0C38.2,54,22.2,53.7,17.2,54L17.2,54z"/><path fill="#fff" d="M12.2 68.2H22.2V103.9H12.2z"/><path fill="#ad5165" d="M43.1,64.4c0-0.2-0.1-0.4-0.1-0.6c0-0.4-0.1-0.7-0.2-1.1c0-0.2-0.1-0.4-0.2-0.7c-0.1-0.3-0.1-0.6-0.2-1c-0.1-0.2-0.2-0.5-0.2-0.7c-0.1-0.3-0.2-0.6-0.3-0.9c-0.1-0.2-0.2-0.4-0.3-0.7c-0.1-0.3-0.3-0.6-0.4-0.8c-0.1-0.2-0.3-0.4-0.4-0.7c-0.2-0.3-0.3-0.5-0.5-0.8c-0.1-0.2-0.3-0.4-0.5-0.6c-0.2-0.2-0.4-0.5-0.5-0.7c-0.2-0.2-0.4-0.4-0.5-0.6c-0.2-0.2-0.4-0.4-0.6-0.6c-0.1,0-2.7,0-6.2-0.1c0.8,2.2,1.2,4.4,1.2,6.8v5.4v31.3c0,5.9-4.8,10.6-10.6,10.6h-9.4v6h30V66.1C43.2,65.5,43.1,64.9,43.1,64.4z"/><path fill="#444b54" d="M43.2,117h-31c-1.7,0-3-1.3-3-3V66.1c0-1.7,1.3-3,3-3s3,1.3,3,3V111h25V66.1c0-3.8-1.5-7.3-4.1-10c-3.8-3.8-5.9-8.8-5.9-14.2V17h-5v24.9c0,5.4-2.1,10.4-5.9,14.2c-1.2,1.2-3.1,1.2-4.2,0c-1.2-1.2-1.2-3.1,0-4.2c2.7-2.7,4.1-6.2,4.1-10V14c0-1.7,1.3-3,3-3h11c1.7,0,3,1.3,3,3v27.9c0,3.8,1.5,7.3,4.1,9.9c3.8,3.8,5.9,8.8,5.9,14.2V114C46.2,115.7,44.8,117,43.2,117z"/><path fill="#fff" d="M53.2,74c0,11,9,20,20,20s20-9,20-20c0-3.7-1-7.1-2.8-10.1H55.9C54.2,66.9,53.2,70.3,53.2,74z"/><path fill="#ff697b" d="M53.2,74c0,11,9,20,20,20s20-9,20-20H53.2z"/><path fill="#ad5165" d="M83.2,74c0,9.3-6.4,17.1-15,19.3c1.6,0.4,3.3,0.7,5,0.7c11,0,20-9,20-20H83.2z"/><path fill="#444b54" d="M73.2,97c-12.7,0-23-10.3-23-23c0-4.1,1.1-8.1,3.2-11.6c0.8-1.4,2.7-1.9,4.1-1.1c1.4,0.8,1.9,2.7,1.1,4.1C57,68,56.2,71,56.2,74c0,9.4,7.6,17,17,17s17-7.6,17-17c0-2.5-0.5-4.9-1.6-7.1H65.9c-1.7,0-3-1.3-3-3s1.3-3,3-3h24.5c1.1,0,2,0.6,2.6,1.5c2.1,3.5,3.2,7.6,3.2,11.6C96.2,86.7,85.8,97,73.2,97z"/><path fill="#444b54" d="M83.2,117c-7.2,0-13-5.8-13-13V94c0-1.7,1.3-3,3-3s3,1.3,3,3v10c0,3.9,3.1,7,7,7c1.7,0,3,1.3,3,3S84.8,117,83.2,117z"/><path fill="#444b54" d="M83.2,117h-20c-1.7,0-3-1.3-3-3s1.3-3,3-3h20c1.7,0,3,1.3,3,3S84.8,117,83.2,117z"/></svg>