<svg xmlns="http://www.w3.org/2000/svg" data-name="Layer 1" viewBox="0 0 64 64"><path fill="#c2cde7" d="M43.19,28.05l4.14,1.62A4,4,0,0,0,52.1,28.2l9.25-13.62A2,2,0,0,0,61.11,12L55,5.89a2,2,0,0,0-2.54-.24l-13.57,9.2a4,4,0,0,0-1.5,4.71l1.59,4.26"/><path fill="#d6dff2" d="M45.14,28.81l2.19.86A4,4,0,0,0,52.1,28.2l9.25-13.62A2,2,0,0,0,61.11,12L55,5.89a2,2,0,0,0-2.54-.24l-13.57,9.2a4,4,0,0,0-1.5,4.71l.83,2.22a10,10,0,0,0,2.29,3.57l1.23,1.23A10,10,0,0,0,45.14,28.81Z"/><path fill="#c2cde7" d="M38.95,23.81,9.51,50.69a4,4,0,0,0-.13,5.78l1.15,1.15a4,4,0,0,0,5.78-.13L43.19,28.05"/><path fill="#d6dff2" d="M36.09,32.94,24.77,38.59,11.72,25.54a16,16,0,0,1-3-18.47h0A.81.81,0,0,1,10,6.86Z"/><path fill="#f9e3ae" d="M29,37.18,48.11,57.51a4,4,0,0,0,5.74.09l1.23-1.23a4,4,0,0,0-.1-5.75L36.09,32.94"/><path fill="#f6d397" d="M53.86,57.6l1-1L33,34.8l-4,2.38L48.11,57.51A4,4,0,0,0,53.86,57.6Z"/><path fill="#8d6c9f" d="M47,30.6a5,5,0,0,0,1.84.35,5,5,0,0,0,4.12-2.2l9.25-13.62a3,3,0,0,0-.36-3.81L55.67,5.18a3,3,0,0,0-3.8-.36L38.3,14a5,5,0,0,0-1.88,5.89l1.36,3.62-5.06,4.62-22-22a1.81,1.81,0,0,0-2.89.47A17,17,0,0,0,11,26.24L22.36,37.6,8.84,49.95a5,5,0,0,0-.16,7.23l1.15,1.15a5,5,0,0,0,3.53,1.46h.12a5,5,0,0,0,3.58-1.63L32,41.8,47.38,58.19a5,5,0,0,0,3.57,1.58H51a5,5,0,0,0,3.53-1.46l1.23-1.23a5,5,0,0,0-.12-7.19L38.92,34.22l4.55-5ZM21.24,29.4a1,1,0,0,0-1.41,0l-1.41,1.41-2.12-2.12,1.41-1.41a1,1,0,0,0-1.41-1.41l-1.41,1.41-2.12-2.12,1.41-1.41a1,1,0,0,0-1.41-1.41L11.4,23.68a15,15,0,0,1-1.69-2.55l.92-.92a1,1,0,0,0-1.41-1.41l-.35.35A15,15,0,0,1,9.49,7.76L34.4,32.66l-8.78,4.39a1,1,0,0,1-1.15-.19l-1.1-1.1,1.41-1.41a1,1,0,0,0-1.41-1.41l-1.41,1.41-2.12-2.12,1.41-1.41A1,1,0,0,0,21.24,29.4ZM15.58,56.81a3,3,0,0,1-4.34.1l-1.15-1.15a3,3,0,0,1,.1-4.34L23.92,38.88a3,3,0,0,0,2.59,0l1.83-.92,2.27,2.42Zm39.68-3.32a3,3,0,0,1-.88,2.17l-1.23,1.23a3,3,0,0,1-4.31-.07L30.21,37l5.7-2.85L54.3,51.35A3,3,0,0,1,55.25,53.49ZM36.78,32.21l-2.65-2.65,5.49-5h0a1,1,0,0,0,.19-.26l0-.06a70.8,70.8,0,0,0,.09-.37s0-.06,0-.09a1,1,0,0,0,0-.29h0L38.29,19.2a3,3,0,0,1,1.13-3.54L53,6.47a1,1,0,0,1,1.27.12l1,1-9.9,9.9a1,1,0,1,0,1.41,1.41L56.63,9,58,10.37l-9.9,9.9a1,1,0,1,0,1.41,1.41l9.9-9.9,1,1A1,1,0,0,1,60.53,14L51.27,27.63a3,3,0,0,1-3.58,1.11l-4.14-1.62h0a1,1,0,0,0-.25,0l-.14,0a10.78,10.78,0,0,0-.37.09l-.11.08a1,1,0,0,0-.21.15h0l-5,5.47Z"/><path fill="#8d6c9f" d="M41 44l1.66 1.66a1 1 0 0 0 1.41-1.41l-1.66-1.66A1 1 0 0 0 41 44zM51.54 54.46A1 1 0 0 0 53 53l-5.79-5.79a1 1 0 0 0-1.41 1.41z"/></svg>